<svg xmlns="http://www.w3.org/2000/svg" viewBox="0 0 32 32">
  <defs>
    <linearGradient id="grad1" x1="0%" y1="0%" x2="100%" y2="100%">
      <stop offset="0%" style="stop-color:#0f2744;stop-opacity:1" />
      <stop offset="100%" style="stop-color:#1a365d;stop-opacity:1" />
    </linearGradient>
  </defs>
  <!-- Background -->
  <rect width="32" height="32" rx="8" fill="url(#grad1)"/>
  <!-- Building 1 -->
  <rect x="4" y="14" width="6" height="12" rx="1" fill="#f97316"/>
  <rect x="5" y="16" width="1.5" height="2" fill="#0f2744"/>
  <rect x="7.5" y="16" width="1.5" height="2" fill="#0f2744"/>
  <rect x="5" y="20" width="1.5" height="2" fill="#0f2744"/>
  <rect x="7.5" y="20" width="1.5" height="2" fill="#0f2744"/>
  <!-- Building 2 (Tall) -->
  <rect x="12" y="8" width="8" height="18" rx="1" fill="white"/>
  <rect x="13.5" y="10" width="2" height="2.5" fill="#1a365d"/>
  <rect x="16.5" y="10" width="2" height="2.5" fill="#1a365d"/>
  <rect x="13.5" y="14" width="2" height="2.5" fill="#1a365d"/>
  <rect x="16.5" y="14" width="2" height="2.5" fill="#1a365d"/>
  <rect x="13.5" y="18" width="2" height="2.5" fill="#1a365d"/>
  <rect x="16.5" y="18" width="2" height="2.5" fill="#1a365d"/>
  <rect x="14.5" y="22" width="3" height="4" fill="#f97316"/>
  <!-- Building 3 -->
  <rect x="22" y="12" width="6" height="14" rx="1" fill="#f97316"/>
  <rect x="23" y="14" width="1.5" height="2" fill="#0f2744"/>
  <rect x="25.5" y="14" width="1.5" height="2" fill="#0f2744"/>
  <rect x="23" y="18" width="1.5" height="2" fill="#0f2744"/>
  <rect x="25.5" y="18" width="1.5" height="2" fill="#0f2744"/>
</svg>
